<svg xmlns="http://www.w3.org/2000/svg" style="display:none">
  <!-- â± timer -->
  <symbol id="ico-timer" viewBox="0 0 24 24" fill="none" stroke="currentColor" stroke-width="2" stroke-linecap="round" stroke-linejoin="round">
    <circle cx="12" cy="13" r="8"/><path d="M12 9v4l2.5 2.5"/><path d="M9 3h6"/><path d="M12 3v2"/>
  </symbol>
  <!-- â™¾ infinity -->
  <symbol id="ico-infinity" viewBox="0 0 24 24" fill="none" stroke="currentColor" stroke-width="2" stroke-linecap="round" stroke-linejoin="round">
    <path d="M12 12c-2-2.5-4-4-6-4a4 4 0 0 0 0 8c2 0 4-1.5 6-4z"/><path d="M12 12c2 2.5 4 4 6 4a4 4 0 0 0 0-8c-2 0-4 1.5-6 4z"/>
  </symbol>
  <!-- âš™ gear -->
  <symbol id="ico-gear" viewBox="0 0 24 24" fill="none" stroke="currentColor" stroke-width="2" stroke-linecap="round" stroke-linejoin="round">
    <circle cx="12" cy="12" r="3"/><path d="M19.4 15a1.65 1.65 0 0 0 .33 1.82l.06.06a2 2 0 0 1-2.83 2.83l-.06-.06a1.65 1.65 0 0 0-1.82-.33 1.65 1.65 0 0 0-1 1.51V21a2 2 0 0 1-4 0v-.09A1.65 1.65 0 0 0 9 19.4a1.65 1.65 0 0 0-1.82.33l-.06.06a2 2 0 0 1-2.83-2.83l.06-.06A1.65 1.65 0 0 0 4.68 15a1.65 1.65 0 0 0-1.51-1H3a2 2 0 0 1 0-4h.09A1.65 1.65 0 0 0 4.6 9a1.65 1.65 0 0 0-.33-1.82l-.06-.06a2 2 0 0 1 2.83-2.83l.06.06A1.65 1.65 0 0 0 9 4.68a1.65 1.65 0 0 0 1-1.51V3a2 2 0 0 1 4 0v.09a1.65 1.65 0 0 0 1 1.51 1.65 1.65 0 0 0 1.82-.33l.06-.06a2 2 0 0 1 2.83 2.83l-.06.06A1.65 1.65 0 0 0 19.4 9a1.65 1.65 0 0 0 1.51 1H21a2 2 0 0 1 0 4h-.09a1.65 1.65 0 0 0-1.51 1z"/>
  </symbol>
  <!-- âš¡ bolt -->
  <symbol id="ico-bolt" viewBox="0 0 24 24" fill="none" stroke="currentColor" stroke-width="2" stroke-linecap="round" stroke-linejoin="round">
    <polygon points="13 2 3 14 12 14 11 22 21 10 12 10 13 2"/>
  </symbol>
  <!-- âœ pen -->
  <symbol id="ico-pen" viewBox="0 0 24 24" fill="none" stroke="currentColor" stroke-width="2" stroke-linecap="round" stroke-linejoin="round">
    <path d="M12 20h9"/><path d="M16.5 3.5a2.121 2.121 0 0 1 3 3L7 19l-4 1 1-4L16.5 3.5z"/>
  </symbol>
  <!-- ðŸŽ¨ palette -->
  <symbol id="ico-palette" viewBox="0 0 24 24" fill="none" stroke="currentColor" stroke-width="2" stroke-linecap="round" stroke-linejoin="round">
    <circle cx="13.5" cy="6.5" r="1"/><circle cx="17.5" cy="10.5" r="1"/><circle cx="8.5" cy="7.5" r="1"/><circle cx="6.5" cy="12.5" r="1"/>
    <path d="M12 2C6.5 2 2 6.5 2 12s4.5 10 10 10c.926 0 1.648-.746 1.648-1.688 0-.437-.18-.835-.476-1.125-.29-.289-.479-.68-.479-1.125a1.625 1.625 0 0 1 1.625-1.625h1.921c3.005 0 5.441-2.436 5.441-5.442C22 6.11 17.5 2 12 2z"/>
  </symbol>
  <!-- ðŸŽ¯ target -->
  <symbol id="ico-target" viewBox="0 0 24 24" fill="none" stroke="currentColor" stroke-width="2" stroke-linecap="round" stroke-linejoin="round">
    <circle cx="12" cy="12" r="10"/><circle cx="12" cy="12" r="6"/><circle cx="12" cy="12" r="2"/>
  </symbol>
  <!-- ðŸŽµ music note -->
  <symbol id="ico-music" viewBox="0 0 24 24" fill="none" stroke="currentColor" stroke-width="2" stroke-linecap="round" stroke-linejoin="round">
    <path d="M9 18V5l12-2v13"/><circle cx="6" cy="18" r="3"/><circle cx="18" cy="16" r="3"/>
  </symbol>
  <!-- ðŸ‘‘ crown -->
  <symbol id="ico-crown" viewBox="0 0 24 24" fill="none" stroke="currentColor" stroke-width="2" stroke-linecap="round" stroke-linejoin="round">
    <path d="M2 17l2-9 5 5 3-8 3 8 5-5 2 9z"/><rect x="2" y="17" width="20" height="2" rx="1"/>
  </symbol>
  <!-- ðŸ‘¤ user -->
  <symbol id="ico-user" viewBox="0 0 24 24" fill="none" stroke="currentColor" stroke-width="2" stroke-linecap="round" stroke-linejoin="round">
    <path d="M20 21v-2a4 4 0 0 0-4-4H8a4 4 0 0 0-4 4v2"/><circle cx="12" cy="7" r="4"/>
  </symbol>
  <!-- ðŸ’Ž diamond -->
  <symbol id="ico-diamond" viewBox="0 0 24 24" fill="none" stroke="currentColor" stroke-width="2" stroke-linecap="round" stroke-linejoin="round">
    <polygon points="12 2 22 9 18 21 6 21 2 9"/><line x1="2" y1="9" x2="22" y2="9"/>
  </symbol>
  <!-- ðŸ’ª muscle -->
  <symbol id="ico-muscle" viewBox="0 0 24 24" fill="none" stroke="currentColor" stroke-width="2" stroke-linecap="round" stroke-linejoin="round">
    <path d="M18 15.5c0 1.5-1.5 4.5-4 4.5s-4-2-4-4c0-1 .5-2 1-2.5l2-2c.5-.5 1-1.5 1-2.5 0-1.7-1.3-3-3-3S8 7.3 8 9M14 4.5c0-.8.7-1.5 1.5-1.5S17 3.7 17 4.5 16.3 6 15.5 6"/><path d="M11 20.5c-.8 0-1.5-.7-1.5-1.5"/>
  </symbol>
  <!-- ðŸ’» laptop -->
  <symbol id="ico-laptop" viewBox="0 0 24 24" fill="none" stroke="currentColor" stroke-width="2" stroke-linecap="round" stroke-linejoin="round">
    <rect x="2" y="3" width="20" height="14" rx="2"/><line x1="2" y1="20" x2="22" y2="20"/>
  </symbol>
  <!-- ðŸ“š books -->
  <symbol id="ico-books" viewBox="0 0 24 24" fill="none" stroke="currentColor" stroke-width="2" stroke-linecap="round" stroke-linejoin="round">
    <path d="M4 19.5A2.5 2.5 0 0 1 6.5 17H20"/><path d="M6.5 2H20v20H6.5A2.5 2.5 0 0 1 4 19.5v-15A2.5 2.5 0 0 1 6.5 2z"/><line x1="12" y1="6" x2="16" y2="6"/><line x1="12" y1="10" x2="16" y2="10"/>
  </symbol>
  <!-- ðŸ“¢ megaphone -->
  <symbol id="ico-megaphone" viewBox="0 0 24 24" fill="none" stroke="currentColor" stroke-width="2" stroke-linecap="round" stroke-linejoin="round">
    <path d="M3 11l18-5v12L3 13v-2z"/><path d="M11.6 16.8a3 3 0 1 1-5.8-1.6"/>
  </symbol>
  <!-- ðŸ“· camera -->
  <symbol id="ico-camera" viewBox="0 0 24 24" fill="none" stroke="currentColor" stroke-width="2" stroke-linecap="round" stroke-linejoin="round">
    <path d="M23 19a2 2 0 0 1-2 2H3a2 2 0 0 1-2-2V8a2 2 0 0 1 2-2h4l2-3h6l2 3h4a2 2 0 0 1 2 2z"/><circle cx="12" cy="13" r="4"/>
  </symbol>
  <!-- ðŸ”’ lock -->
  <symbol id="ico-lock" viewBox="0 0 24 24" fill="none" stroke="currentColor" stroke-width="2" stroke-linecap="round" stroke-linejoin="round">
    <rect x="3" y="11" width="18" height="11" rx="2" ry="2"/><path d="M7 11V7a5 5 0 0 1 10 0v4"/>
  </symbol>
  <!-- ðŸ”¥ fire -->
  <symbol id="ico-fire" viewBox="0 0 24 24" fill="none" stroke="currentColor" stroke-width="2" stroke-linecap="round" stroke-linejoin="round">
    <path d="M8.5 14.5A4.5 4.5 0 0 0 12 19a4.5 4.5 0 0 0 4.5-4.5c0-1.5-.5-2.5-1.5-3.5L12 8l-3 3c-1 1-1.5 2-1.5 3.5z"/>
    <path d="M12 19c0 0 4-2 4-6 0-1-.3-2-1-3l-1.5-2L12 10l-1.5-2L9 11c-.7 1-1 2-1 3 0 4 4 5 4 5z"/>
  </symbol>
  <!-- ðŸš€ rocket -->
  <symbol id="ico-rocket" viewBox="0 0 24 24" fill="none" stroke="currentColor" stroke-width="2" stroke-linecap="round" stroke-linejoin="round">
    <path d="M4.5 16.5c-1.5 1.26-2 5-2 5s3.74-.5 5-2c.71-.84.7-2.13-.09-2.91a2.18 2.18 0 0 0-2.91-.09z"/><path d="M12 15l-3-3a22 22 0 0 1 2-3.95A12.88 12.88 0 0 1 22 2c0 2.72-.78 7.5-6 11a22.35 22.35 0 0 1-4 2z"/><path d="M9 12H4s.55-3.03 2-4c1.62-1.08 5 0 5 0"/><path d="M12 15v5s3.03-.55 4-2c1.08-1.62 0-5 0-5"/>
  </symbol>
  <!-- ðŸ¤– robot -->
  <symbol id="ico-robot" viewBox="0 0 24 24" fill="none" stroke="currentColor" stroke-width="2" stroke-linecap="round" stroke-linejoin="round">
    <rect x="3" y="11" width="18" height="10" rx="2"/><circle cx="12" cy="5" r="2"/><line x1="12" y1="7" x2="12" y2="11"/>
    <line x1="8" y1="15" x2="8" y2="15" stroke-width="3" stroke-linecap="round"/>
    <line x1="16" y1="15" x2="16" y2="15" stroke-width="3" stroke-linecap="round"/>
    <path d="M8 19h8"/><line x1="3" y1="14" x2="1" y2="14"/><line x1="21" y1="14" x2="23" y2="14"/>
  </symbol>
  <!-- ðŸ§  brain -->
  <symbol id="ico-brain" viewBox="0 0 24 24" fill="none" stroke="currentColor" stroke-width="2" stroke-linecap="round" stroke-linejoin="round">
    <path d="M12 5a3 3 0 0 0-5.997.125 4 4 0 0 0-2.526 5.77 4 4 0 0 0 .556 6.588A4 4 0 1 0 12 18Z"/><path d="M12 5a3 3 0 0 1 5.997.125 4 4 0 0 1 2.526 5.77 4 4 0 0 1-.556 6.588A4 4 0 1 1 12 18Z"/>
    <path d="M15 13a4.5 4.5 0 0 1-3-4 4.5 4.5 0 0 1-3 4"/><path d="M17.599 6.5a3 3 0 0 0 .399-1.375"/><path d="M6.003 5.125A3 3 0 0 0 6.401 6.5"/><path d="M3.477 10.896a4 4 0 0 1 .585-.396"/><path d="M19.938 10.5a4 4 0 0 1 .585.396"/><path d="M6 18a4 4 0 0 1-1.967-.516"/><path d="M19.967 17.484A4 4 0 0 1 18 18"/>
  </symbol>
  <!-- â–¶ï¸ play / youtube -->
  <symbol id="ico-play" viewBox="0 0 24 24" fill="none" stroke="currentColor" stroke-width="2" stroke-linecap="round" stroke-linejoin="round">
    <circle cx="12" cy="12" r="10"/><polygon points="10 8 16 12 10 16 10 8"/>
  </symbol>
  <!-- â˜… star filled -->
  <symbol id="ico-star" viewBox="0 0 24 24" fill="currentColor" stroke="none">
    <polygon points="12 2 15.09 8.26 22 9.27 17 14.14 18.18 21.02 12 17.77 5.82 21.02 7 14.14 2 9.27 8.91 8.26 12 2"/>
  </symbol>
  <!-- â˜† star empty -->
  <symbol id="ico-star-empty" viewBox="0 0 24 24" fill="none" stroke="currentColor" stroke-width="2">
    <polygon points="12 2 15.09 8.26 22 9.27 17 14.14 18.18 21.02 12 17.77 5.82 21.02 7 14.14 2 9.27 8.91 8.26 12 2"/>
  </symbol>
</svg>
